<svg width="401" height="401.001" overflow="visible" xmlns="http://www.w3.org/2000/svg"><g clip-rule="evenodd"><path fill-rule="evenodd" fill="#FFF" d="M8.5 262.02C8.5 139.257 89.231 35.353 200.5.5c111.269 34.853 192 138.757 192 261.52v63.642c0 29.993-21.304 55.014-49.602 60.76l-.189.038-.187.037-.187.037c-45.924 9.168-93.317 13.967-141.835 13.967-48.519 0-95.911-4.799-141.835-13.967l-.187-.037-.187-.037-.19-.038C29.804 380.676 8.5 355.655 8.5 325.662V262.02z"/><path fill="none" stroke="#000" stroke-linecap="round" stroke-linejoin="round" stroke-miterlimit="3.864" d="M8.5 262.02C8.5 139.257 89.231 35.353 200.5.5c111.269 34.853 192 138.757 192 261.52v63.642c0 29.993-21.304 55.014-49.602 60.76l-.189.038-.187.037-.187.037c-45.924 9.168-93.317 13.967-141.835 13.967-48.519 0-95.911-4.799-141.835-13.967l-.187-.037-.187-.037-.19-.038C29.804 380.676 8.5 355.655 8.5 325.662V262.02z"/></g><path fill-rule="evenodd" clip-rule="evenodd" fill="#006B54" d="M200.5 13.104c104.55 34.42 180 132.87 180 248.916v63.642c0 24.172-17.166 44.365-39.982 48.998-45.164 9.016-92.303 13.841-140.018 13.841s-94.33-4.72-139.492-13.735C38.191 370.132 20.5 349.834 20.5 325.662V262.02c0-116.046 75.45-214.497 180-248.916z"/><path fill-rule="evenodd" clip-rule="evenodd" fill="#FFF" d="M88.844 145.72a11.161 11.161 0 0 1-.887 3.466 13.627 13.627 0 0 1-1.826 3.05 13.576 13.576 0 0 1-2.599 2.493 14.622 14.622 0 0 1-3.204 1.792c-1.882.76-3.714 1.085-5.498.978s-3.466-.598-5.044-1.469c-1.579-.87-3.017-2.113-4.316-3.726s-2.397-3.533-3.295-5.756c-.91-2.252-1.455-4.402-1.636-6.45-.182-2.05-.004-3.928.533-5.636a11.668 11.668 0 0 1 2.625-4.517c1.215-1.303 2.762-2.335 4.643-3.094 2.309-.934 4.676-1.251 7.1-.954 2.424.297 4.6 1.232 6.53 2.807l-3.548 4.268c-.64-.437-1.153-.744-1.54-.92a5.842 5.842 0 0 0-1.333-.406c-.754-.226-1.606-.304-2.556-.235s-1.81.259-2.58.57c-1.31.53-2.29 1.265-2.937 2.206a7.393 7.393 0 0 0-1.231 3.108c-.174 1.13-.146 2.306.08 3.523s.565 2.383 1.014 3.494c1.266 3.136 2.861 5.318 4.784 6.547 1.922 1.23 3.966 1.406 6.132.531a8.097 8.097 0 0 0 1.696-.909 6.873 6.873 0 0 0 1.298-1.22 8.376 8.376 0 0 0 1.068-1.725c.324-.678.66-1.485 1.011-2.423l5.516.606zM119.655 142.417l-5.04-6.077-12.876 3.936-.736 7.844-5.82 1.779 3.401-33.345 5.38-1.645 21.38 25.769-5.69 1.739zm-16.13-19.322-1.097 11.233 8.29-2.535-7.193-8.698zM130.64 140.019l-5.895-30.326 5.432-1.056 4.989 25.664 17.244-3.352.906 4.662zM160.296 103.834l3.765 30.662-5.491.675-3.765-30.663zM175.857 107.961l.438 6.256 9.613-.673.392 5.612-9.613.673.939 13.43-5.611.393-2.156-30.818 23.045-1.612.386 5.52zM225.816 117.521c-.085 2.428-.462 4.621-1.13 6.582-.667 1.96-1.58 3.628-2.735 5.002s-2.537 2.426-4.147 3.155c-1.61.728-3.398 1.057-5.364.989-2.273-.08-4.215-.617-5.826-1.61s-2.926-2.271-3.949-3.83c-1.022-1.558-1.753-3.306-2.193-5.244a22.614 22.614 0 0 1-.559-5.81c.086-2.457.463-4.659 1.13-6.604.668-1.945 1.595-3.589 2.78-4.932a11.443 11.443 0 0 1 4.236-3.035c1.637-.682 3.47-.986 5.499-.915 1.904.066 3.627.51 5.167 1.333a12.115 12.115 0 0 1 3.942 3.368c1.088 1.422 1.905 3.119 2.452 5.091.546 1.972.778 4.126.697 6.46zm-5.535-.054c.114-3.257-.427-5.828-1.622-7.716-1.195-1.887-2.96-2.872-5.295-2.953s-4.195.776-5.58 2.574c-1.386 1.796-2.136 4.323-2.249 7.58-.115 3.318.455 5.922 1.711 7.81 1.257 1.89 3.053 2.876 5.388 2.957 1.474.052 2.691-.229 3.651-.842a6.91 6.91 0 0 0 2.299-2.41c.572-.995.988-2.112 1.247-3.348.259-1.237.408-2.454.45-3.652zM251.01 136.45l-3.242-12.702-8.174-1.148-1.688 12.008-5.48-.77 4.3-30.592 14.064 1.976c1.126.158 2.072.384 2.838.678s1.51.74 2.233 1.339a8.996 8.996 0 0 1 3.002 3.82c.65 1.55.855 3.194.612 4.929-.245 1.735-.9 3.25-1.967 4.543-1.066 1.293-2.45 2.255-4.154 2.885l3.775 13.894-6.118-.86zm2.984-21.232c.168-1.187-.096-2.187-.789-2.998-.693-.811-1.725-1.313-3.094-1.506l-8.675-1.219-1.073 7.625 8.676 1.22c1.37.192 2.5.001 3.387-.572s1.41-1.424 1.568-2.55zM282.827 143.273l-9.13-24.183-5.142 20.625-5.28-1.316 7.475-29.976 5.279 1.317 8.805 23.199 4.93-19.775 5.19 1.294-7.475 29.976zM309.947 119.047l-9.547 29.38-5.262-1.709 9.547-29.38zM329.208 159.23l-.093-7.896-12.483-5.043-5.508 5.632-5.644-2.28 23.63-23.773 5.215 2.108.398 33.48-5.515-2.229zm-.375-25.167-7.923 8.039 8.037 3.247-.114-11.286z"/><g fill-rule="evenodd" clip-rule="evenodd" fill="#FFF"><path d="M120.25 333.734V208.547h-14.063V188.95h1.614c3.227 0 6.455-.845 9.682-2.536 3.228-1.69 5.918-4.073 8.07-7.147h19.596v154.467H120.25zM278.813 203.705a635.241 635.241 0 0 1-3.804 4.611c-1.153 1.383-2.229 2.766-3.228 4.15s-2.036 2.844-3.112 4.38a107.985 107.985 0 0 0-3.458 5.302c-6.917 11.374-12.796 23.363-17.637 35.966-4.842 12.604-8.57 25.13-11.181 37.58-.461 3.228-.922 6.34-1.384 9.337-.461 2.996-.807 5.994-1.037 8.99-.23 2.999-.423 6.073-.576 9.223-.155 3.15-.232 6.648-.232 10.49h-24.898c.153-8.915.691-17.521 1.613-25.822.923-8.299 2.267-16.445 4.035-24.437s4.034-15.947 6.8-23.862c2.767-7.916 6.072-15.947 9.915-24.092a220.12 220.12 0 0 1 8.53-17.06c3.073-5.534 5.994-10.452 8.76-14.756h-73.774v-24.438h104.667v24.438z"/></g></svg>